<svg version="1" xmlns="http://www.w3.org/2000/svg" width="853.333" height="853.333" viewBox="0 0 640.000000 640.000000"><path d="M102 65.1c-1.9.5-4.3 1.1-5.3 1.4-3.4.8-13.3 6.6-16.9 10-5.2 4.8-10.3 12.4-12.8 19.3-2.4 6.4-3.1 12.9-2.9 27.7 0 5.5.1 10.7 0 11.5v16c0 8 .1 15.2 0 16v18.5c0 9.3-.1 19.2-.2 22-.1 2.7-.1 5.7 0 6.5.1.8.1 3.1 0 5s-.1 4.2 0 5v7c-.1 3-.1 6.2 0 7 .1.8.1 3.1 0 5s-.1 4.2 0 5v7c-.1 3-.1 6.2 0 7 .1.8.1 3.1 0 5s-.1 4.2 0 5v7c-.1 3-.1 6.2 0 7 .1.8.1 3.1 0 5s-.1 4.2 0 5v7c-.1 3-.1 6.1 0 6.7v10c.1 4.9.1 15.3.2 23.3 0 8 .1 15.2 0 16v47.5c0 2.2 0 4.9-.1 6-.2 2.7-.2 3.2-.1 9.5v7c0 .8 0 3.1.1 5 .2 1.9.1 3.9 0 4.5-.1.5-.2 2.9-.1 5.2l.1 4.2h4.8c10.1.1 14.6 0 15.4-.5.4-.3.8-.2.8.3 0 .8 17.2.8 21.8 0 1.2-.2 2.2-.1 2.2.2 0 .3 2.6.5 5.7.4 3.2-.1 9.2-.2 13.3-.2 4.1 0 9.1-.1 11-.2 1.9-.1 4.1-.1 4.8 0 .6.1 1.8.1 2.5.2 1.3.1 11.1 0 16.7-.2 1.9-.1 4-.1 4.5 0 8.4.5 14.5.4 14.5-.2 0-.5.5-.5 1-.2.9.5 4.9.6 18 .4.8 0 4.8.1 8.8.3 3.9.2 7.2-.1 7.2-.5 0-.5.4-.6.9-.3s7.6.6 15.7.6c27.3 0 32.8.1 33.6.6.4.3.8.2.8-.3 0-.4 2.7-.8 6-.8s6 .2 6 .5 2.6.4 5.7.3c3.2-.1 5.8-.2 5.8-.3 0-.1 2.8-.2 6.3-.3 3.4-.1 6.2 0 6.2.3s2.8.4 6.2.2c3.5-.1 8.8-.2 11.8-.1h7c.8-.1 3.1-.1 5 0h12c3 .1 6.4 0 7.5-.1 1.1-.1 2.5-.1 3-.1H393c.8 0 4.8.1 8.8.3 3.9.2 7.2-.1 7.2-.5 0-.5.4-.6.9-.3s7.3.6 15.2.6c7.9 0 18.5 0 23.4.1 14 0 18.8-.2 19.7-.7.4-.3.8-.2.8.3 0 .8 17.2.8 21.8 0 1.2-.2 2.2-.1 2.2.2 0 .3 2.6.5 5.7.4 3.2-.1 9.2-.2 13.3-.2 4.1 0 9.1-.1 11-.2 1.9-.1 4.1-.1 4.8 0 .6.1 1.8.1 2.5.2 1.3.1 11.1 0 16.7-.2 1.9-.1 4-.1 4.5-.1.6.1 6.3.2 12.8.4 11.3.3 11.8.2 11.6-1.7-.1-1.1 0-2.2 0-2.5.5-1.3.5-12 .1-12-.3 0-.4-2.8-.3-6.2.1-3.5.2-6.3.3-6.3.1 0 .2-2.6.3-5.8.1-3.1 0-5.7-.3-5.7s-.5-2.7-.5-6 .2-6 .5-6 .4-4.6.3-10.2c-.2-10.1-.3-19.8-.2-22.8v-5c-.1-1.9-.1-4.2 0-5v-7-7-5c-.1-1.9-.1-4.2 0-5v-7c-.1-3 0-8.3.1-11.8.2-3.4.1-6.2-.2-6.2-.3 0-.4-2.8-.3-6.2.1-3.5.2-6.3.3-6.3.1 0 .2-2.6.3-5.8.1-3.1 0-5.7-.3-5.7s-.5-2.7-.5-6 .2-6 .5-6 .4-4.6.3-10.2c-.2-10.1-.3-19.8-.2-22.8v-5c-.1-1.9-.1-4.2 0-5v-7-7-5c-.1-1.9-.1-4.2 0-5v-7c-.1-3 0-8.3.1-11.8.2-3.4.1-6.2-.2-6.2-.3 0-.4-2.8-.3-6.2.1-3.5.2-6.3.3-6.3.1 0 .2-2.6.3-5.8.1-3.1 0-5.7-.3-5.7s-.5-2.7-.5-6 .2-6 .5-6c.6 0 .4-17.5-.4-30-.7-13.6-5.2-23.6-14.7-32.8-5.3-5.1-16.3-10.8-23.8-12.2-7-1.3-430.1-1.2-435.1.1zm41 62.6c0-.4.4-.6.9-.3.7.5 7.7.8 12.1.5.8-.1 2.9 0 4.5 0 3.7.2 14.5.3 16.5.2.8-.1 3.1-.1 5 0h19c.8-.1 3.1-.1 5 0h19c.8-.1 3.1-.1 5 0h12c3 0 6 .1 6.5.1.6 0 7.1-.1 14.5-.1h111.5c8.5-.2 22.8-.2 23.1.1.2.3 2.7.2 5.4-.2 2.8-.4 5.3-.3 5.6.2.3.5.9.6 1.3.4.7-.5 9.9-.7 14.1-.5.8.1 3.1.1 5 0s4.2-.1 5 0c.8.1 4 .1 7 0h7c.8.1 3.1.1 5 0s4.2-.1 5 0c.8.1 4 .1 7 0h7c.8.1 3.1.1 5 0s4.2-.1 5 0c.8.1 4 .1 7 0h7c.8.1 3.2.1 5.3 0 10.7-.3 10.7-.3 10.7 2.1v4.3c.1 3.1.1 14.8.1 16.2-.1.7-.2 1.9-.2 2.5-.1.7-.1 4.2 0 7.8 0 3.6.1 7.2 0 8v192c0 .8 0 5.9.1 11.4.1 5.4-.3 10.3-.8 10.8-.9.9-1.5 1-8.7.9-5.7-.1-7.4-.1-13 0H483c-.8-.1-3.3-.1-5.5 0-3.8.1-4.7 0-7.7-.2-.7-.1-3.8-.1-6.8 0h-7c-.8-.1-3.1-.1-5 0s-4.2.1-5 0c-.8-.1-4-.1-7 0h-7c-.8-.1-3.1-.1-5 0s-4.2.1-5 0c-.8-.1-4-.1-7 0h-7c-.8-.1-3.1-.1-5 0s-4.2.1-5 0c-1.3-.1-30.9-.1-36.5 0H265c-6 .2-19.5-.1-20.2-.5-.4-.3-.8-.2-.8.3 0 .4-2.7.8-6 .8s-6-.2-6-.5-2.6-.4-5.7-.3c-3.2.1-5.8.2-5.8.3 0 .1-2.8.2-6.3.3-3.4.1-6.2 0-6.2-.3s-2.6-.4-5.7-.3c-3.2.1-5.8.2-5.8.3 0 .1-2.8.2-6.3.3-3.4.1-6.2 0-6.2-.3s-2.6-.4-5.7-.3c-3.2.1-5.8.2-5.8.3 0 .1-2.8.2-6.3.3-3.4.1-6.2 0-6.2-.3 0-.4-10.9-.4-11.7 0-.3.1-9.7.2-16.2.1l-3.9-.1-.1-7.3c-.1-3.9-.2-7.9-.2-8.7-.1-.8-.1-3.1 0-5 .2-5.6.3-15.4.2-16.8-.1-.6-.1-1.8-.2-2.5-.1-.6-.1-2.8 0-4.7.2-5.6.3-15.4.2-16.8-.1-.6-.1-1.8-.2-2.5-.1-.6-.1-2.8 0-4.7.2-5.6.3-15.4.2-16.8-.1-.6-.1-1.8-.2-2.5-.1-.6-.1-2.8 0-4.7.2-5.6.3-15.4.2-16.8-.1-.6-.1-1.8-.2-2.5-.1-.6-.1-2.8 0-4.7.2-5.6.3-15.4.2-16.8-.1-.6-.1-1.8-.2-2.5-.1-.6-.1-2.8 0-4.7.2-5.6.3-15.4.2-16.8-.1-.6-.1-1.8-.2-2.5-.1-.6-.1-2.8 0-4.7.2-5.6.3-15.4.2-16.8-.1-.6-.1-1.8-.2-2.5-.1-.6-.1-2.8 0-4.7.2-5.6.3-15.4.2-16.8-.1-.6-.1-1.8-.2-2.5-.1-.6-.1-2.8 0-4.7.2-5.6.3-15.4.2-16.8-.2-3.1-.3-3.9-.1-7.7.1-2.2.1-4.5 0-5-.1-.6-.2-3.8-.1-7.2.1-7 .4-7.2 9.9-6.2 2.8.3 5.2.1 5.2-.4z"/><path d="M261.4 182.6c-3.2 1.2-10.7 8.1-35.5 32.9-17.3 17.3-31.9 32.7-32.6 34.2-1.5 3.5-1.5 7.9 0 12.1.8 2.1 12 14.1 32.1 34.2 17.1 17.1 31.3 31 31.8 31 .4 0 .8.4.8.9 0 .9 5.4 2.6 7.5 2.4 7.5-.8 8.9-1.6 17.5-10.1 10.8-10.8 12.5-15.3 8.9-24.2-.5-1.4-9.3-10.8-19.4-20.9C262.3 265 254 256.4 254 256c0-.4 8.5-9.3 18.9-19.7 19.9-19.9 21.6-22.3 20.4-29.5-.8-5.2-2.6-7.8-10.6-15.5-9.6-9.3-14.1-11.2-21.3-8.7zM371.2 182.1c-4.9.9-9.3 4.1-17.4 12.7-7.4 8-9.2 14.8-5.5 21.7.5 1.1 9.4 10.4 19.7 20.8l18.7 18.7-19.3 19.3c-20.2 20.4-21.9 22.7-20.7 29.9.8 5.3 2.7 7.9 11.1 15.9 5.9 5.6 9.1 7.9 12.2 8.7 8.4 2.1 9.6 1.2 44-33.2 17.2-17.2 31.7-32 32.2-32.9.5-.9 1.1-3.3 1.4-5.3 1-8.2.4-9-33.1-42.4-17.4-17.3-31.7-31.6-31.8-31.7-2.3-1.8-7.9-2.9-11.5-2.2zM19 480c0 .4-1.3.5-2.8.2-4.2-.6-9.5 2.1-12.8 6.4l-2.9 3.8.1 16c0 8.9.4 17.2.7 18.6.4 1.4.9 3.6 1.2 4.9 1.2 6.1 8.9 19.3 14.8 25.3 7.9 8.1 12 11.1 20.4 14.9 13.9 6.2-4.6 5.8 282.8 5.8 291.8.1 268.5.6 283.4-6.6 4.2-2.1 8.4-4.4 9.5-5.3 4.4-3.5 11.5-10.8 14.2-14.5 1.6-2.2 3.1-4.2 3.4-4.5.4-.3 1.7-3 2.9-6 2.2-5 3.2-7.9 4.8-13.5.3-1.1.8-8.8 1-17 .6-17.6-.2-20.7-6.5-25.3-3.5-2.5-4.9-2.9-10.6-2.8-3.6.1-6.6-.1-6.6-.4 0-.6-10.9-.4-11.6.2-.2.3-2.4.2-4.9-.2-2.4-.4-5-.3-5.7.1-.6.4-1.5.6-2 .3-.7-.4-22.6-.6-50.1-.3-6 0-11-.1-11.3-.3-.2-.3-2.7-.2-5.4.2-2.8.4-5.3.3-5.6-.2-.3-.5-.9-.6-1.3-.4-.4.3-3.4.5-6.7.5-3.2.1-7.7.2-9.9.2-2.2.1-4.4.1-5 .1-.5-.1-10-.1-21-.1-31.9-.1-37.8-.2-38.7-.7-.4-.3-.8-.1-.8.4 0 .4-2.3.6-5 .2-2.8-.4-5.3-.4-5.5 0-.2.4-2.4.4-4.7 0-2.4-.3-5.4-.3-6.8 0-1.4.4-3.6.4-5 0-1.4-.3-3.8-.4-5.5 0-1.6.3-5 .3-7.5 0-7.1-.8-14.5.2-14.5 2 .1.8-.3 2.8-.8 4.5-.4 1.6-.9 3.5-1 4-.6 2.9-5.3 10.3-8.1 12.8-3.3 3.1-9.5 6.6-13 7.3-6.5 1.5-18.9 2-20.7.8-.5-.3-.9 0-.9.6s-.4.9-.9.6c-1-.6-7.8-.8-17.4-.4-3.7.2-6.7 0-6.7-.3s-2-.3-4.5.1-4.8.3-5.1-.2c-.3-.4-1-.6-1.5-.2-1 .6-8.7.6-16.2 0-6.1-.5-14.3-4.5-19.4-9.5-4.4-4.3-9.1-13.1-10-18.6-.5-3.4-2.1-4.3-6.5-3.6-1.2.1-6.2.2-10.3 0-2.2 0-4.4 0-5 .1-.5.1-1.4.2-1.8.1-.5-.1-2.9-.1-5.5-.1h-6.7c-2.3.1-9.5.1-11 .1H188c-10.7-.1-24.4-.1-30.3 0-6 0-11-.1-11.3-.3-.2-.3-2.7-.2-5.4.2-2.8.4-5.3.3-5.6-.2-.3-.5-.9-.6-1.3-.4-.4.3-3.4.5-6.7.5-3.2.1-7.7.2-9.9.2-2.2.1-4.4.1-5 .1-.5-.1-10-.1-21-.1-31.9-.1-37.8-.2-38.7-.7-.4-.3-.8-.2-.8.3 0 .4-2.7.8-6 .8s-6-.2-6-.5-2.5-.5-5.5-.5-5.5.3-5.5.6-2.2.3-5-.1c-2.7-.4-5-.4-5 0z"/></svg>