<?xml version="1.0" encoding="UTF-8"?>
<svg xmlns="http://www.w3.org/2000/svg" xmlns:xlink="http://www.w3.org/1999/xlink" width="188pt" height="188pt" viewBox="0 0 188 188" version="1.1">
<g id="surface1">
<path style=" stroke:none;fill-rule:nonzero;fill:rgb(0%,0%,0%);fill-opacity:1;" d="M 14.101562 0 C 6.324219 0 0 7.90625 0 17.625 L 0 41.125 C 0 44.371094 2.101562 47 4.699219 47 L 28.199219 47 L 28.199219 17.625 C 28.199219 7.90625 21.875 0 14.101562 0 Z M 75.199219 151.492188 L 75.199219 129.25 L 159.800781 129.25 L 159.800781 35.25 C 159.800781 15.8125 147.152344 0 131.601562 0 L 32.78125 0 C 35.761719 4.925781 37.601562 10.984375 37.601562 17.625 L 37.601562 152.75 C 37.601562 167.023438 47.777344 178.324219 59.558594 175.925781 C 68.800781 174.046875 75.199219 163.199219 75.199219 151.492188 Z M 84.601562 141 L 84.601562 152.75 C 84.601562 172.183594 71.949219 188 56.398438 188 L 155.101562 188 C 173.269531 188 188 169.589844 188 146.875 C 188 143.628906 185.898438 141 183.300781 141 Z M 84.601562 141 "/>
</g>
</svg>
